# MagicaVoxel @ Ephtracy

# group
g asteroide

# material
mtllib asteroide.mtl
usemtl palette

# normals
vn -1 0 0
vn 1 0 0
vn 0 0 1
vn 0 0 -1
vn 0 -1 0
vn 0 1 0

# texcoords
vt 0.720703 0.5
vt 0.724609 0.5
vt 0.732422 0.5
vt 0.740234 0.5
vt 0.748047 0.5
vt 0.849609 0.5
vt 0.853516 0.5
vt 0.857422 0.5
vt 0.861328 0.5
vt 0.865234 0.5
vt 0.869141 0.5
vt 0.912109 0.5
vt 0.916016 0.5
vt 0.943359 0.5

# verts
v -2 0 11
v -2 0 9
v -2 1 12
v -2 1 11
v -2 1 10
v -2 1 9
v -2 1 8
v -2 1 -9
v -2 1 -10
v -2 2 11
v -2 2 10
v -2 2 9
v -2 2 8
v -2 2 -9
v -2 2 -10
v -2 3 12
v -2 3 11
v -2 3 10
v -2 3 9
v -2 3 8
v -2 4 11
v -2 4 10
v -2 4 9
v -1 0 12
v -1 0 11
v -1 0 9
v -1 0 8
v -1 0 -6
v -1 0 -7
v -1 0 -9
v -1 0 -10
v -1 1 13
v -1 1 12
v -1 1 11
v -1 1 9
v -1 1 8
v -1 1 6
v -1 1 5
v -1 1 4
v -1 1 2
v -1 1 1
v -1 1 -0
v -1 1 -2
v -1 1 -4
v -1 1 -6
v -1 1 -7
v -1 1 -8
v -1 1 -9
v -1 1 -10
v -1 1 -11
v -1 1 -12
v -1 1 -13
v -1 2 13
v -1 2 12
v -1 2 8
v -1 2 6
v -1 2 5
v -1 2 4
v -1 2 2
v -1 2 1
v -1 2 -0
v -1 2 -1
v -1 2 -2
v -1 2 -4
v -1 2 -5
v -1 2 -6
v -1 2 -7
v -1 2 -8
v -1 2 -9
v -1 2 -10
v -1 2 -11
v -1 2 -12
v -1 2 -13
v -1 3 13
v -1 3 12
v -1 3 11
v -1 3 9
v -1 3 8
v -1 3 6
v -1 3 4
v -1 3 2
v -1 3 1
v -1 3 -0
v -1 3 -1
v -1 3 -2
v -1 3 -4
v -1 3 -5
v -1 3 -6
v -1 3 -7
v -1 3 -9
v -1 3 -10
v -1 4 12
v -1 4 11
v -1 4 9
v -1 4 8
v 0 1 10
v 0 1 9
v 0 1 4
v 0 1 3
v 0 1 2
v 0 1 -4
v 0 1 -5
v 0 1 -6
v 0 1 -11
v 0 1 -12
v 0 2 9
v 0 2 6
v 0 2 5
v 0 2 4
v 0 2 3
v 0 2 2
v 0 2 1
v 0 2 -2
v 0 2 -3
v 0 2 -4
v 0 2 -5
v 0 2 -6
v 0 2 -11
v 0 2 -12
v 0 3 10
v 0 3 9
v 0 3 6
v 0 3 5
v 0 3 2
v 0 3 1
v 0 3 -2
v 0 3 -3
v 0 3 -4
v 0 3 -7
v 0 3 -8
v 0 3 -10
v 0 3 -11
v 0 4 -7
v 0 4 -8
v 0 4 -10
v 0 4 -11
v 1 1 11
v 1 1 10
v 1 1 -9
v 1 1 -10
v 1 2 -9
v 1 2 -10
v 1 3 11
v 1 3 10
v -1 1 11
v -1 1 10
v -1 1 9
v -1 1 -9
v -1 1 -10
v -1 2 11
v -1 2 10
v -1 2 9
v -1 2 -9
v -1 2 -10
v -1 3 11
v -1 3 10
v -1 3 9
v 0 0 -6
v 0 0 -7
v 0 0 -9
v 0 0 -10
v 0 1 2
v 0 1 1
v 0 1 -0
v 0 1 -6
v 0 1 -7
v 0 1 -8
v 0 1 -9
v 0 1 -10
v 0 1 -11
v 0 1 -12
v 0 1 -13
v 0 2 8
v 0 2 7
v 0 2 6
v 0 2 2
v 0 2 1
v 0 2 -0
v 0 2 -1
v 0 2 -2
v 0 2 -4
v 0 2 -5
v 0 2 -6
v 0 2 -8
v 0 2 -9
v 0 2 -10
v 0 2 -11
v 0 2 -12
v 0 2 -13
v 0 3 8
v 0 3 6
v 0 3 -0
v 0 3 -1
v 0 3 -2
v 0 3 -4
v 0 3 -5
v 0 3 -6
v 0 3 -9
v 0 3 -10
v 1 0 12
v 1 0 11
v 1 0 9
v 1 0 8
v 1 1 13
v 1 1 12
v 1 1 11
v 1 1 9
v 1 1 8
v 1 1 7
v 1 1 6
v 1 1 4
v 1 1 3
v 1 1 2
v 1 1 -0
v 1 1 -1
v 1 1 -4
v 1 1 -5
v 1 1 -6
v 1 1 -11
v 1 1 -12
v 1 2 8
v 1 2 7
v 1 2 6
v 1 2 5
v 1 2 4
v 1 2 3
v 1 2 2
v 1 2 1
v 1 2 -0
v 1 2 -1
v 1 2 -2
v 1 2 -3
v 1 2 -4
v 1 2 -5
v 1 2 -6
v 1 2 -7
v 1 2 -11
v 1 2 -12
v 1 3 13
v 1 3 12
v 1 3 11
v 1 3 9
v 1 3 8
v 1 3 6
v 1 3 5
v 1 3 4
v 1 3 3
v 1 3 2
v 1 3 1
v 1 3 -0
v 1 3 -2
v 1 3 -3
v 1 3 -4
v 1 3 -6
v 1 3 -7
v 1 3 -8
v 1 3 -10
v 1 3 -11
v 1 4 12
v 1 4 11
v 1 4 9
v 1 4 8
v 1 4 -7
v 1 4 -8
v 1 4 -10
v 1 4 -11
v 2 0 11
v 2 0 9
v 2 1 12
v 2 1 11
v 2 1 9
v 2 1 8
v 2 1 -9
v 2 1 -10
v 2 2 9
v 2 2 8
v 2 2 -9
v 2 2 -10
v 2 3 12
v 2 3 11
v 2 3 9
v 2 3 8
v 2 4 11
v 2 4 9
v -1 1 13
v -1 2 13
v -1 3 13
v 0 2 13
v 0 3 13
v 1 1 13
v 1 3 13
v -2 1 12
v -2 3 12
v -1 0 12
v -1 1 12
v -1 2 12
v -1 3 12
v -1 4 12
v 0 3 12
v 1 0 12
v 1 1 12
v 1 3 12
v 1 4 12
v 2 1 12
v 2 3 12
v -2 0 11
v -2 1 11
v -2 3 11
v -2 4 11
v -1 0 11
v -1 1 11
v -1 3 11
v -1 4 11
v 1 0 11
v 1 1 11
v 1 3 11
v 1 4 11
v 2 0 11
v 2 1 11
v 2 3 11
v 2 4 11
v 0 1 10
v 0 3 10
v 1 1 10
v 1 3 10
v -1 1 9
v -1 2 9
v -1 3 9
v 0 1 9
v 0 2 9
v 0 3 9
v 0 2 6
v 0 3 6
v 1 2 6
v 1 3 6
v -1 2 4
v -1 3 4
v 1 2 4
v 1 3 4
v -1 1 2
v -1 2 2
v 0 1 2
v 0 2 2
v -1 2 1
v -1 3 1
v 0 2 1
v 0 3 1
v 0 1 -0
v 0 2 -0
v 1 1 -0
v 1 2 -0
v 0 2 -2
v 0 3 -2
v 1 2 -2
v 1 3 -2
v -1 2 -4
v -1 3 -4
v 0 2 -4
v 0 3 -4
v -1 0 -6
v -1 1 -6
v 0 0 -6
v 0 1 -6
v 0 2 -6
v 0 3 -6
v 1 2 -6
v 1 3 -6
v 0 3 -7
v 0 4 -7
v 1 3 -7
v 1 4 -7
v -1 1 -8
v -1 2 -8
v 0 1 -8
v 0 2 -8
v -2 1 -9
v -2 2 -9
v -1 0 -9
v -1 1 -9
v -1 2 -9
v -1 3 -9
v 0 0 -9
v 0 1 -9
v 0 2 -9
v 0 3 -9
v 1 1 -9
v 1 2 -9
v 2 1 -9
v 2 2 -9
v -1 1 -10
v -1 2 -10
v 0 1 -10
v 0 2 -10
v 0 3 -10
v 0 4 -10
v 1 3 -10
v 1 4 -10
v 0 1 -11
v 0 2 -11
v 1 1 -11
v 1 2 -11
v -1 1 -12
v -1 2 -12
v 0 1 -12
v 0 2 -12
v -1 1 11
v -1 2 11
v -1 3 11
v 0 3 11
v 1 1 11
v 1 3 11
v -2 0 9
v -2 1 9
v -2 3 9
v -2 4 9
v -1 0 9
v -1 1 9
v -1 3 9
v -1 4 9
v 1 0 9
v 1 1 9
v 1 3 9
v 1 4 9
v 2 0 9
v 2 1 9
v 2 3 9
v 2 4 9
v -2 1 8
v -2 2 8
v -2 3 8
v -1 0 8
v -1 1 8
v -1 2 8
v -1 3 8
v -1 4 8
v 0 2 8
v 0 3 8
v 0 4 8
v 1 0 8
v 1 1 8
v 1 2 8
v 1 3 8
v 1 4 8
v 2 1 8
v 2 2 8
v 2 3 8
v -1 2 6
v -1 3 6
v 0 2 6
v 0 3 6
v 0 2 5
v 0 3 5
v 1 2 5
v 1 3 5
v -1 1 4
v -1 2 4
v 0 1 4
v 0 2 4
v -1 2 2
v -1 3 2
v 0 1 2
v 0 2 2
v 0 3 2
v 1 1 2
v 1 2 2
v 0 2 -0
v 0 3 -0
v 1 2 -0
v 1 3 -0
v -1 2 -2
v -1 3 -2
v 0 2 -2
v 0 3 -2
v -1 1 -4
v -1 2 -4
v 0 1 -4
v 0 2 -4
v 0 3 -4
v 1 2 -4
v 1 3 -4
v 0 1 -6
v 0 2 -6
v 1 1 -6
v 1 2 -6
v -1 0 -7
v -1 1 -7
v -1 2 -7
v -1 3 -7
v 0 0 -7
v 0 1 -7
v 0 2 -7
v 0 3 -7
v 1 2 -7
v 1 3 -7
v 0 3 -8
v 0 4 -8
v 1 3 -8
v 1 4 -8
v -1 1 -9
v -1 2 -9
v 0 1 -9
v 0 2 -9
v -2 1 -10
v -2 2 -10
v -1 0 -10
v -1 1 -10
v -1 2 -10
v -1 3 -10
v 0 0 -10
v 0 1 -10
v 0 2 -10
v 0 3 -10
v 1 1 -10
v 1 2 -10
v 2 1 -10
v 2 2 -10
v -1 1 -11
v -1 2 -11
v 0 1 -11
v 0 2 -11
v 0 3 -11
v 0 4 -11
v 1 3 -11
v 1 4 -11
v 0 1 -12
v 0 2 -12
v 1 1 -12
v 1 2 -12
v -1 1 -13
v -1 2 -13
v 0 1 -13
v 0 2 -13
v -1 0 12
v 1 0 12
v -2 0 11
v -1 0 11
v 1 0 11
v 2 0 11
v -2 0 9
v -1 0 9
v 1 0 9
v 2 0 9
v -1 0 8
v 1 0 8
v -1 0 -6
v 0 0 -6
v -1 0 -7
v 0 0 -7
v -1 0 -9
v 0 0 -9
v -1 0 -10
v 0 0 -10
v -1 1 13
v 1 1 13
v -2 1 12
v -1 1 12
v 1 1 12
v 2 1 12
v -2 1 11
v -1 1 11
v 1 1 11
v 2 1 11
v -2 1 9
v -1 1 9
v 1 1 9
v 2 1 9
v -2 1 8
v -1 1 8
v 1 1 8
v 2 1 8
v 0 1 7
v 1 1 7
v -1 1 6
v 0 1 6
v 1 1 6
v -1 1 5
v 0 1 5
v -1 1 4
v 0 1 4
v 1 1 4
v 0 1 3
v 1 1 3
v -1 1 2
v 0 1 2
v 1 1 2
v -1 1 1
v 0 1 1
v -1 1 -0
v 0 1 -0
v 1 1 -0
v 0 1 -1
v 1 1 -1
v -1 1 -2
v 0 1 -2
v -1 1 -4
v 0 1 -4
v 1 1 -4
v 0 1 -5
v 1 1 -5
v 0 1 -6
v 1 1 -6
v -1 1 -8
v 0 1 -8
v -2 1 -9
v -1 1 -9
v 0 1 -9
v 1 1 -9
v 2 1 -9
v -2 1 -10
v -1 1 -10
v 0 1 -10
v 1 1 -10
v 2 1 -10
v -1 1 -11
v 0 1 -11
v 1 1 -11
v -1 1 -12
v 0 1 -12
v 1 1 -12
v -1 1 -13
v 0 1 -13
v -1 2 4
v 0 2 4
v 0 2 3
v -1 2 2
v 0 2 2
v 1 2 2
v 0 2 1
v 1 2 1
v 0 2 -0
v 1 2 -0
v -1 2 -4
v 0 2 -4
v -1 2 -5
v 0 2 -5
v -1 2 -6
v 0 2 -6
v 1 2 -6
v -1 2 -7
v 0 2 -7
v 1 2 -7
v -1 2 -9
v 0 2 -9
v -1 2 -10
v 0 2 -10
v -1 3 11
v 0 3 11
v 1 3 11
v -1 3 10
v 0 3 10
v 1 3 10
v -1 3 9
v 0 3 9
v 0 3 -7
v 1 3 -7
v 0 3 -8
v 1 3 -8
v 0 3 -10
v 1 3 -10
v 0 3 -11
v 1 3 -11
v -1 1 11
v 1 1 11
v -1 1 10
v 0 1 10
v 1 1 10
v -1 1 9
v 0 1 9
v -1 1 -6
v 0 1 -6
v -1 1 -7
v 0 1 -7
v -1 1 -9
v 0 1 -9
v -1 1 -10
v 0 1 -10
v 0 2 8
v 1 2 8
v 0 2 7
v 1 2 7
v -1 2 6
v 0 2 6
v 1 2 6
v -1 2 5
v 0 2 5
v 1 2 5
v -1 2 4
v 1 2 4
v -1 2 2
v 0 2 2
v -1 2 1
v 0 2 1
v 0 2 -0
v 1 2 -0
v 0 2 -1
v 1 2 -1
v -1 2 -2
v 0 2 -2
v 1 2 -2
v 0 2 -3
v -1 2 -4
v 0 2 -4
v 1 2 -4
v 0 2 -5
v 1 2 -5
v 0 2 -6
v 1 2 -6
v -1 2 -8
v 0 2 -8
v -2 2 -9
v -1 2 -9
v 0 2 -9
v 1 2 -9
v 2 2 -9
v -2 2 -10
v -1 2 -10
v 0 2 -10
v 1 2 -10
v 2 2 -10
v -1 2 -11
v 0 2 -11
v 1 2 -11
v -1 2 -12
v 0 2 -12
v 1 2 -12
v -1 2 -13
v 0 2 -13
v -1 3 13
v 0 3 13
v 1 3 13
v -2 3 12
v -1 3 12
v 0 3 12
v 1 3 12
v 2 3 12
v -2 3 11
v -1 3 11
v 1 3 11
v 2 3 11
v -2 3 9
v -1 3 9
v 1 3 9
v 2 3 9
v -2 3 8
v -1 3 8
v 0 3 8
v 1 3 8
v 2 3 8
v -1 3 6
v 0 3 6
v 1 3 6
v 0 3 5
v 1 3 5
v -1 3 4
v 1 3 4
v 0 3 3
v 1 3 3
v -1 3 2
v 0 3 2
v 1 3 2
v -1 3 1
v 0 3 1
v 1 3 1
v -1 3 -0
v 0 3 -0
v 1 3 -0
v -1 3 -1
v 0 3 -1
v -1 3 -2
v 0 3 -2
v 1 3 -2
v 0 3 -3
v 1 3 -3
v -1 3 -4
v 0 3 -4
v 1 3 -4
v -1 3 -5
v 0 3 -5
v -1 3 -6
v 0 3 -6
v 1 3 -6
v -1 3 -7
v 0 3 -7
v 1 3 -7
v -1 3 -9
v 0 3 -9
v -1 3 -10
v 0 3 -10
v -1 4 12
v 1 4 12
v -2 4 11
v -1 4 11
v 0 4 11
v 1 4 11
v 2 4 11
v -2 4 10
v -1 4 10
v 0 4 10
v -2 4 9
v -1 4 9
v 0 4 9
v 1 4 9
v 2 4 9
v -1 4 8
v 0 4 8
v 1 4 8
v 0 4 -7
v 1 4 -7
v 0 4 -8
v 1 4 -8
v 0 4 -10
v 1 4 -10
v 0 4 -11
v 1 4 -11

# faces
f 4/8/1 2/8/1 1/8/1
f 5/8/1 2/8/1 4/8/1
f 6/8/1 2/8/1 5/8/1
f 10/9/1 4/9/1 3/9/1
f 10/11/1 5/11/1 4/11/1
f 11/8/1 7/8/1 6/8/1
f 11/11/1 5/11/1 10/11/1
f 11/8/1 6/8/1 5/8/1
f 12/8/1 7/8/1 11/8/1
f 13/8/1 7/8/1 12/8/1
f 14/12/1 9/12/1 8/12/1
f 15/12/1 9/12/1 14/12/1
f 16/9/1 10/9/1 3/9/1
f 17/10/1 11/10/1 10/10/1
f 17/9/1 10/9/1 16/9/1
f 18/8/1 12/8/1 11/8/1
f 18/10/1 11/10/1 17/10/1
f 19/1/1 13/1/1 12/1/1
f 19/8/1 12/8/1 18/8/1
f 20/1/1 13/1/1 19/1/1
f 21/8/1 18/8/1 17/8/1
f 22/10/1 19/10/1 18/10/1
f 22/8/1 18/8/1 21/8/1
f 23/10/1 19/10/1 22/10/1
f 33/9/1 25/9/1 24/9/1
f 34/9/1 25/9/1 33/9/1
f 35/8/1 27/8/1 26/8/1
f 36/8/1 27/8/1 35/8/1
f 45/13/1 29/13/1 28/13/1
f 46/13/1 29/13/1 45/13/1
f 48/5/1 31/5/1 30/5/1
f 49/5/1 31/5/1 48/5/1
f 53/9/1 33/9/1 32/9/1
f 54/9/1 33/9/1 53/9/1
f 55/9/1 37/9/1 36/9/1
f 56/7/1 38/7/1 37/7/1
f 56/9/1 37/9/1 55/9/1
f 57/9/1 39/9/1 38/9/1
f 57/7/1 38/7/1 56/7/1
f 58/9/1 39/9/1 57/9/1
f 59/2/1 41/2/1 40/2/1
f 60/9/1 42/9/1 41/9/1
f 60/2/1 41/2/1 59/2/1
f 61/3/1 43/3/1 42/3/1
f 61/9/1 42/9/1 60/9/1
f 62/3/1 43/3/1 61/3/1
f 63/4/1 44/4/1 43/4/1
f 63/3/1 43/3/1 62/3/1
f 64/4/1 44/4/1 63/4/1
f 68/12/1 48/12/1 47/12/1
f 69/12/1 48/12/1 68/12/1
f 70/14/1 50/14/1 49/14/1
f 71/14/1 50/14/1 70/14/1
f 72/14/1 52/14/1 51/14/1
f 73/14/1 52/14/1 72/14/1
f 74/11/1 54/11/1 53/11/1
f 75/11/1 54/11/1 74/11/1
f 78/9/1 56/9/1 55/9/1
f 79/9/1 56/9/1 78/9/1
f 80/9/1 59/9/1 58/9/1
f 81/9/1 59/9/1 80/9/1
f 82/12/1 61/12/1 60/12/1
f 83/3/1 62/3/1 61/3/1
f 83/12/1 61/12/1 82/12/1
f 84/4/1 63/4/1 62/4/1
f 84/3/1 62/3/1 83/3/1
f 85/4/1 63/4/1 84/4/1
f 86/13/1 65/13/1 64/13/1
f 87/5/1 66/5/1 65/5/1
f 87/13/1 65/13/1 86/13/1
f 88/12/1 67/12/1 66/12/1
f 88/5/1 66/5/1 87/5/1
f 89/12/1 67/12/1 88/12/1
f 90/5/1 70/5/1 69/5/1
f 91/5/1 70/5/1 90/5/1
f 92/9/1 76/9/1 75/9/1
f 93/9/1 76/9/1 92/9/1
f 94/10/1 78/10/1 77/10/1
f 95/10/1 78/10/1 94/10/1
f 106/6/1 97/6/1 96/6/1
f 109/7/1 99/7/1 98/7/1
f 110/12/1 100/12/1 99/12/1
f 110/7/1 99/7/1 109/7/1
f 111/12/1 100/12/1 110/12/1
f 115/13/1 102/13/1 101/13/1
f 116/5/1 103/5/1 102/5/1
f 116/13/1 102/13/1 115/13/1
f 117/5/1 103/5/1 116/5/1
f 118/12/1 105/12/1 104/12/1
f 119/12/1 105/12/1 118/12/1
f 120/6/1 106/6/1 96/6/1
f 121/6/1 106/6/1 120/6/1
f 122/9/1 108/9/1 107/9/1
f 123/9/1 108/9/1 122/9/1
f 124/4/1 112/4/1 111/4/1
f 125/4/1 112/4/1 124/4/1
f 126/4/1 114/4/1 113/4/1
f 127/13/1 115/13/1 114/13/1
f 127/4/1 114/4/1 126/4/1
f 128/13/1 115/13/1 127/13/1
f 133/12/1 130/12/1 129/12/1
f 134/12/1 130/12/1 133/12/1
f 135/14/1 132/14/1 131/14/1
f 136/14/1 132/14/1 135/14/1
f 141/12/1 140/12/1 139/12/1
f 142/12/1 140/12/1 141/12/1
f 143/8/1 138/8/1 137/8/1
f 144/8/1 138/8/1 143/8/1
f 145/11/2 146/11/2 150/11/2
f 146/8/2 147/8/2 151/8/2
f 150/11/2 146/11/2 151/11/2
f 151/8/2 147/8/2 152/8/2
f 148/12/2 149/12/2 153/12/2
f 153/12/2 149/12/2 154/12/2
f 150/10/2 151/10/2 155/10/2
f 151/8/2 152/8/2 156/8/2
f 155/10/2 151/10/2 156/10/2
f 156/8/2 152/8/2 157/8/2
f 158/13/2 159/13/2 165/13/2
f 165/13/2 159/13/2 166/13/2
f 160/5/2 161/5/2 168/5/2
f 168/5/2 161/5/2 169/5/2
f 162/2/2 163/2/2 176/2/2
f 163/9/2 164/9/2 177/9/2
f 176/2/2 163/2/2 177/2/2
f 177/9/2 164/9/2 178/9/2
f 167/12/2 168/12/2 184/12/2
f 184/12/2 168/12/2 185/12/2
f 169/14/2 170/14/2 186/14/2
f 186/14/2 170/14/2 187/14/2
f 171/14/2 172/14/2 188/14/2
f 188/14/2 172/14/2 189/14/2
f 174/9/2 175/9/2 190/9/2
f 173/9/2 174/9/2 190/9/2
f 190/9/2 175/9/2 191/9/2
f 178/3/2 179/3/2 192/3/2
f 179/4/2 180/4/2 193/4/2
f 192/3/2 179/3/2 193/3/2
f 193/4/2 180/4/2 194/4/2
f 181/13/2 182/13/2 195/13/2
f 182/5/2 183/5/2 196/5/2
f 195/13/2 182/13/2 196/13/2
f 196/5/2 183/5/2 197/5/2
f 185/5/2 186/5/2 198/5/2
f 198/5/2 186/5/2 199/5/2
f 200/9/2 201/9/2 205/9/2
f 205/9/2 201/9/2 206/9/2
f 202/8/2 203/8/2 207/8/2
f 207/8/2 203/8/2 208/8/2
f 208/9/2 209/9/2 221/9/2
f 209/11/2 210/11/2 222/11/2
f 221/9/2 209/9/2 222/9/2
f 210/9/2 211/9/2 223/9/2
f 222/11/2 210/11/2 223/11/2
f 223/9/2 211/9/2 224/9/2
f 211/7/2 212/7/2 225/7/2
f 224/9/2 211/9/2 225/9/2
f 212/12/2 213/12/2 226/12/2
f 225/7/2 212/7/2 226/7/2
f 226/12/2 213/12/2 227/12/2
f 214/2/2 215/2/2 229/2/2
f 215/4/2 216/4/2 230/4/2
f 229/2/2 215/2/2 230/2/2
f 230/4/2 216/4/2 231/4/2
f 231/4/2 216/4/2 232/4/2
f 216/13/2 217/13/2 233/13/2
f 232/4/2 216/4/2 233/4/2
f 217/5/2 218/5/2 234/5/2
f 233/13/2 217/13/2 234/13/2
f 234/5/2 218/5/2 235/5/2
f 219/12/2 220/12/2 237/12/2
f 237/12/2 220/12/2 238/12/2
f 204/9/2 205/9/2 239/9/2
f 239/9/2 205/9/2 240/9/2
f 223/9/2 224/9/2 244/9/2
f 244/9/2 224/9/2 245/9/2
f 225/9/2 226/9/2 246/9/2
f 226/1/2 227/1/2 247/1/2
f 246/9/2 226/9/2 247/9/2
f 227/4/2 228/4/2 248/4/2
f 247/1/2 227/1/2 248/1/2
f 228/9/2 229/9/2 249/9/2
f 248/4/2 228/4/2 249/4/2
f 249/9/2 229/9/2 250/9/2
f 231/4/2 232/4/2 251/4/2
f 232/13/2 233/13/2 252/13/2
f 251/4/2 232/4/2 252/4/2
f 252/13/2 233/13/2 253/13/2
f 235/5/2 236/5/2 254/5/2
f 254/5/2 236/5/2 255/5/2
f 240/9/2 241/9/2 259/9/2
f 259/9/2 241/9/2 260/9/2
f 242/8/2 243/8/2 261/8/2
f 261/8/2 243/8/2 262/8/2
f 255/12/2 256/12/2 263/12/2
f 263/12/2 256/12/2 264/12/2
f 257/14/2 258/14/2 265/14/2
f 265/14/2 258/14/2 266/14/2
f 267/8/2 268/8/2 270/8/2
f 270/8/2 268/8/2 271/8/2
f 270/8/2 271/8/2 275/8/2
f 271/8/2 272/8/2 275/8/2
f 275/8/2 272/8/2 276/8/2
f 273/12/2 274/12/2 277/12/2
f 277/12/2 274/12/2 278/12/2
f 269/9/2 270/9/2 279/9/2
f 270/8/2 275/8/2 280/8/2
f 279/9/2 270/9/2 280/9/2
f 275/7/2 276/7/2 281/7/2
f 280/8/2 275/8/2 281/8/2
f 281/7/2 276/7/2 282/7/2
f 280/8/2 281/8/2 283/8/2
f 283/8/2 281/8/2 284/8/2
f 288/9/3 286/9/3 285/9/3
f 288/11/3 287/11/3 286/11/3
f 289/11/3 287/11/3 288/11/3
f 290/9/3 288/9/3 285/9/3
f 290/9/3 289/9/3 288/9/3
f 291/9/3 289/9/3 290/9/3
f 295/9/3 293/9/3 292/9/3
f 296/9/3 293/9/3 295/9/3
f 297/9/3 293/9/3 296/9/3
f 299/9/3 298/9/3 297/9/3
f 300/9/3 295/9/3 294/9/3
f 301/9/3 295/9/3 300/9/3
f 302/9/3 298/9/3 299/9/3
f 303/9/3 298/9/3 302/9/3
f 304/9/3 302/9/3 301/9/3
f 305/9/3 302/9/3 304/9/3
f 310/8/3 307/8/3 306/8/3
f 311/8/3 307/8/3 310/8/3
f 312/8/3 309/8/3 308/8/3
f 313/8/3 309/8/3 312/8/3
f 318/8/3 315/8/3 314/8/3
f 319/8/3 315/8/3 318/8/3
f 320/8/3 317/8/3 316/8/3
f 321/8/3 317/8/3 320/8/3
f 324/6/3 323/6/3 322/6/3
f 325/6/3 323/6/3 324/6/3
f 329/6/3 327/6/3 326/6/3
f 330/13/3 328/13/3 327/13/3
f 330/6/3 327/6/3 329/6/3
f 331/13/3 328/13/3 330/13/3
f 334/9/3 333/9/3 332/9/3
f 335/9/3 333/9/3 334/9/3
f 338/9/3 337/9/3 336/9/3
f 339/9/3 337/9/3 338/9/3
f 342/2/3 341/2/3 340/2/3
f 343/2/3 341/2/3 342/2/3
f 346/12/3 345/12/3 344/12/3
f 347/12/3 345/12/3 346/12/3
f 350/2/3 349/2/3 348/2/3
f 351/2/3 349/2/3 350/2/3
f 354/4/3 353/4/3 352/4/3
f 355/4/3 353/4/3 354/4/3
f 358/13/3 357/13/3 356/13/3
f 359/13/3 357/13/3 358/13/3
f 362/13/3 361/13/3 360/13/3
f 363/13/3 361/13/3 362/13/3
f 366/5/3 365/5/3 364/5/3
f 367/5/3 365/5/3 366/5/3
f 370/12/3 369/12/3 368/12/3
f 371/12/3 369/12/3 370/12/3
f 374/12/3 373/12/3 372/12/3
f 375/12/3 373/12/3 374/12/3
f 379/12/3 377/12/3 376/12/3
f 380/12/3 377/12/3 379/12/3
f 382/5/3 379/5/3 378/5/3
f 383/5/3 379/5/3 382/5/3
f 384/5/3 381/5/3 380/5/3
f 385/5/3 381/5/3 384/5/3
f 388/12/3 387/12/3 386/12/3
f 389/12/3 387/12/3 388/12/3
f 392/14/3 391/14/3 390/14/3
f 393/14/3 391/14/3 392/14/3
f 396/14/3 395/14/3 394/14/3
f 397/14/3 395/14/3 396/14/3
f 400/12/3 399/12/3 398/12/3
f 401/12/3 399/12/3 400/12/3
f 404/14/3 403/14/3 402/14/3
f 405/14/3 403/14/3 404/14/3
f 406/9/4 407/9/4 409/9/4
f 407/9/4 408/9/4 409/9/4
f 406/9/4 409/9/4 410/9/4
f 410/9/4 409/9/4 411/9/4
f 412/8/4 413/8/4 416/8/4
f 416/8/4 413/8/4 417/8/4
f 414/10/4 415/10/4 418/10/4
f 418/10/4 415/10/4 419/10/4
f 420/8/4 421/8/4 424/8/4
f 424/8/4 421/8/4 425/8/4
f 422/8/4 423/8/4 426/8/4
f 426/8/4 423/8/4 427/8/4
f 428/8/4 429/8/4 432/8/4
f 429/1/4 430/1/4 433/1/4
f 432/8/4 429/8/4 433/8/4
f 433/1/4 430/1/4 434/1/4
f 434/10/4 435/10/4 437/10/4
f 437/10/4 435/10/4 438/10/4
f 431/8/4 432/8/4 439/8/4
f 439/8/4 432/8/4 440/8/4
f 436/11/4 437/11/4 441/11/4
f 437/8/4 438/8/4 442/8/4
f 441/11/4 437/11/4 442/11/4
f 442/8/4 438/8/4 443/8/4
f 440/8/4 441/8/4 444/8/4
f 441/7/4 442/7/4 445/7/4
f 444/8/4 441/8/4 445/8/4
f 445/7/4 442/7/4 446/7/4
f 447/9/4 448/9/4 449/9/4
f 449/9/4 448/9/4 450/9/4
f 451/9/4 452/9/4 453/9/4
f 453/9/4 452/9/4 454/9/4
f 455/9/4 456/9/4 457/9/4
f 457/9/4 456/9/4 458/9/4
f 459/9/4 460/9/4 462/9/4
f 462/9/4 460/9/4 463/9/4
f 461/12/4 462/12/4 464/12/4
f 464/12/4 462/12/4 465/12/4
f 466/9/4 467/9/4 468/9/4
f 468/9/4 467/9/4 469/9/4
f 470/4/4 471/4/4 472/4/4
f 472/4/4 471/4/4 473/4/4
f 474/4/4 475/4/4 476/4/4
f 476/4/4 475/4/4 477/4/4
f 477/13/4 478/13/4 479/13/4
f 479/13/4 478/13/4 480/13/4
f 481/5/4 482/5/4 483/5/4
f 483/5/4 482/5/4 484/5/4
f 485/13/4 486/13/4 489/13/4
f 489/13/4 486/13/4 490/13/4
f 487/12/4 488/12/4 491/12/4
f 491/12/4 488/12/4 492/12/4
f 491/5/4 492/5/4 493/5/4
f 493/5/4 492/5/4 494/5/4
f 495/12/4 496/12/4 497/12/4
f 497/12/4 496/12/4 498/12/4
f 499/12/4 500/12/4 501/12/4
f 501/12/4 500/12/4 502/12/4
f 503/12/4 504/12/4 506/12/4
f 506/12/4 504/12/4 507/12/4
f 505/5/4 506/5/4 509/5/4
f 509/5/4 506/5/4 510/5/4
f 507/5/4 508/5/4 511/5/4
f 511/5/4 508/5/4 512/5/4
f 513/12/4 514/12/4 515/12/4
f 515/12/4 514/12/4 516/12/4
f 517/14/4 518/14/4 519/14/4
f 519/14/4 518/14/4 520/14/4
f 521/14/4 522/14/4 523/14/4
f 523/14/4 522/14/4 524/14/4
f 525/12/4 526/12/4 527/12/4
f 527/12/4 526/12/4 528/12/4
f 529/14/4 530/14/4 531/14/4
f 531/14/4 530/14/4 532/14/4
f 536/9/5 534/9/5 533/9/5
f 537/9/5 534/9/5 536/9/5
f 539/8/5 536/8/5 535/8/5
f 539/8/5 538/8/5 537/8/5
f 539/8/5 537/8/5 536/8/5
f 540/8/5 538/8/5 539/8/5
f 541/8/5 538/8/5 540/8/5
f 542/8/5 538/8/5 541/8/5
f 543/8/5 541/8/5 540/8/5
f 544/8/5 541/8/5 543/8/5
f 547/13/5 546/13/5 545/13/5
f 548/13/5 546/13/5 547/13/5
f 551/5/5 550/5/5 549/5/5
f 552/5/5 550/5/5 551/5/5
f 556/9/5 554/9/5 553/9/5
f 557/9/5 554/9/5 556/9/5
f 559/9/5 556/9/5 555/9/5
f 560/9/5 556/9/5 559/9/5
f 561/9/5 558/9/5 557/9/5
f 562/9/5 558/9/5 561/9/5
f 567/8/5 564/8/5 563/8/5
f 568/8/5 564/8/5 567/8/5
f 569/8/5 566/8/5 565/8/5
f 570/8/5 566/8/5 569/8/5
f 571/9/5 569/9/5 568/9/5
f 572/9/5 569/9/5 571/9/5
f 573/9/5 571/9/5 568/9/5
f 574/11/5 572/11/5 571/11/5
f 574/9/5 571/9/5 573/9/5
f 575/11/5 572/11/5 574/11/5
f 576/7/5 574/7/5 573/7/5
f 577/9/5 575/9/5 574/9/5
f 577/7/5 574/7/5 576/7/5
f 578/9/5 577/9/5 576/9/5
f 579/9/5 575/9/5 577/9/5
f 579/9/5 577/9/5 578/9/5
f 580/9/5 575/9/5 579/9/5
f 581/7/5 580/7/5 579/7/5
f 582/7/5 580/7/5 581/7/5
f 584/12/5 582/12/5 581/12/5
f 585/12/5 582/12/5 584/12/5
f 586/2/5 584/2/5 583/2/5
f 587/2/5 584/2/5 586/2/5
f 588/9/5 587/9/5 586/9/5
f 589/9/5 587/9/5 588/9/5
f 591/3/5 589/3/5 588/3/5
f 591/2/5 590/2/5 589/2/5
f 592/2/5 590/2/5 591/2/5
f 593/3/5 591/3/5 588/3/5
f 594/4/5 592/4/5 591/4/5
f 594/3/5 591/3/5 593/3/5
f 595/4/5 594/4/5 593/4/5
f 596/4/5 592/4/5 594/4/5
f 596/4/5 594/4/5 595/4/5
f 597/4/5 592/4/5 596/4/5
f 598/13/5 597/13/5 596/13/5
f 599/13/5 597/13/5 598/13/5
f 600/5/5 599/5/5 598/5/5
f 601/5/5 599/5/5 600/5/5
f 605/12/5 603/12/5 602/12/5
f 606/12/5 603/12/5 605/12/5
f 609/12/5 605/12/5 604/12/5
f 610/12/5 605/12/5 609/12/5
f 612/12/5 608/12/5 607/12/5
f 613/12/5 608/12/5 612/12/5
f 614/14/5 611/14/5 610/14/5
f 615/14/5 611/14/5 614/14/5
f 618/12/5 616/12/5 615/12/5
f 619/12/5 616/12/5 618/12/5
f 620/14/5 618/14/5 617/14/5
f 621/14/5 618/14/5 620/14/5
f 624/9/5 623/9/5 622/9/5
f 625/9/5 624/9/5 622/9/5
f 626/9/5 624/9/5 625/9/5
f 628/4/5 627/4/5 626/4/5
f 629/4/5 627/4/5 628/4/5
f 630/9/5 629/9/5 628/9/5
f 631/9/5 629/9/5 630/9/5
f 634/13/5 633/13/5 632/13/5
f 635/13/5 633/13/5 634/13/5
f 636/5/5 635/5/5 634/5/5
f 637/5/5 635/5/5 636/5/5
f 639/12/5 637/12/5 636/12/5
f 640/5/5 638/5/5 637/5/5
f 640/12/5 637/12/5 639/12/5
f 641/5/5 638/5/5 640/5/5
f 644/5/5 643/5/5 642/5/5
f 645/5/5 643/5/5 644/5/5
f 649/9/5 647/9/5 646/9/5
f 650/10/5 648/10/5 647/10/5
f 650/9/5 647/9/5 649/9/5
f 651/10/5 648/10/5 650/10/5
f 652/11/5 650/11/5 649/11/5
f 653/11/5 650/11/5 652/11/5
f 656/12/5 655/12/5 654/12/5
f 657/12/5 655/12/5 656/12/5
f 660/14/5 659/14/5 658/14/5
f 661/14/5 659/14/5 660/14/5
f 662/8/6 663/8/6 664/8/6
f 664/8/6 663/8/6 665/8/6
f 665/8/6 663/8/6 666/8/6
f 664/8/6 665/8/6 667/8/6
f 667/8/6 665/8/6 668/8/6
f 669/13/6 670/13/6 671/13/6
f 671/13/6 670/13/6 672/13/6
f 673/5/6 674/5/6 675/5/6
f 675/5/6 674/5/6 676/5/6
f 677/9/6 678/9/6 679/9/6
f 679/9/6 678/9/6 680/9/6
f 679/11/6 680/11/6 682/11/6
f 682/11/6 680/11/6 683/11/6
f 681/7/6 682/7/6 684/7/6
f 684/7/6 682/7/6 685/7/6
f 684/9/6 685/9/6 687/9/6
f 685/9/6 686/9/6 687/9/6
f 687/9/6 686/9/6 688/9/6
f 689/2/6 690/2/6 691/2/6
f 691/2/6 690/2/6 692/2/6
f 693/2/6 694/2/6 695/2/6
f 695/2/6 694/2/6 696/2/6
f 695/4/6 696/4/6 698/4/6
f 698/4/6 696/4/6 699/4/6
f 697/4/6 698/4/6 700/4/6
f 697/4/6 700/4/6 701/4/6
f 701/4/6 700/4/6 702/4/6
f 702/13/6 703/13/6 704/13/6
f 704/13/6 703/13/6 705/13/6
f 704/5/6 705/5/6 706/5/6
f 706/5/6 705/5/6 707/5/6
f 708/12/6 709/12/6 711/12/6
f 711/12/6 709/12/6 712/12/6
f 710/12/6 711/12/6 715/12/6
f 715/12/6 711/12/6 716/12/6
f 713/12/6 714/12/6 718/12/6
f 718/12/6 714/12/6 719/12/6
f 716/14/6 717/14/6 720/14/6
f 720/14/6 717/14/6 721/14/6
f 721/12/6 722/12/6 724/12/6
f 724/12/6 722/12/6 725/12/6
f 723/14/6 724/14/6 726/14/6
f 726/14/6 724/14/6 727/14/6
f 728/11/6 729/11/6 732/11/6
f 729/9/6 730/9/6 733/9/6
f 732/11/6 729/11/6 733/11/6
f 733/9/6 730/9/6 734/9/6
f 731/9/6 732/9/6 736/9/6
f 736/9/6 732/9/6 737/9/6
f 734/9/6 735/9/6 738/9/6
f 738/9/6 735/9/6 739/9/6
f 740/1/6 741/1/6 744/1/6
f 744/1/6 741/1/6 745/1/6
f 742/7/6 743/7/6 747/7/6
f 747/7/6 743/7/6 748/7/6
f 745/9/6 746/9/6 749/9/6
f 749/9/6 746/9/6 750/9/6
f 750/9/6 751/9/6 752/9/6
f 752/9/6 751/9/6 753/9/6
f 754/9/6 755/9/6 756/9/6
f 756/9/6 755/9/6 757/9/6
f 754/9/6 756/9/6 758/9/6
f 756/1/6 757/1/6 759/1/6
f 758/9/6 756/9/6 759/9/6
f 759/1/6 757/1/6 760/1/6
f 759/4/6 760/4/6 762/4/6
f 762/4/6 760/4/6 763/4/6
f 761/12/6 762/12/6 764/12/6
f 762/9/6 763/9/6 765/9/6
f 764/12/6 762/12/6 765/12/6
f 765/9/6 763/9/6 766/9/6
f 764/3/6 765/3/6 767/3/6
f 767/3/6 765/3/6 768/3/6
f 767/4/6 768/4/6 769/4/6
f 769/4/6 768/4/6 770/4/6
f 770/4/6 771/4/6 772/4/6
f 772/4/6 771/4/6 773/4/6
f 772/13/6 773/13/6 775/13/6
f 775/13/6 773/13/6 776/13/6
f 774/13/6 775/13/6 777/13/6
f 777/13/6 775/13/6 778/13/6
f 777/5/6 778/5/6 779/5/6
f 779/5/6 778/5/6 780/5/6
f 779/12/6 780/12/6 782/12/6
f 780/5/6 781/5/6 783/5/6
f 782/12/6 780/12/6 783/12/6
f 783/5/6 781/5/6 784/5/6
f 785/5/6 786/5/6 787/5/6
f 787/5/6 786/5/6 788/5/6
f 789/9/6 790/9/6 792/9/6
f 792/9/6 790/9/6 793/9/6
f 793/9/6 790/9/6 794/9/6
f 791/8/6 792/8/6 796/8/6
f 792/9/6 793/9/6 797/9/6
f 796/8/6 792/8/6 797/8/6
f 793/10/6 794/10/6 798/10/6
f 797/9/6 793/9/6 798/9/6
f 796/10/6 797/10/6 799/10/6
f 797/11/6 798/11/6 800/11/6
f 799/10/6 797/10/6 800/10/6
f 798/10/6 794/10/6 801/10/6
f 800/11/6 798/11/6 801/11/6
f 794/8/6 795/8/6 802/8/6
f 801/10/6 794/10/6 802/10/6
f 802/8/6 795/8/6 803/8/6
f 800/10/6 801/10/6 804/10/6
f 801/8/6 802/8/6 805/8/6
f 804/10/6 801/10/6 805/10/6
f 805/8/6 802/8/6 806/8/6
f 807/12/6 808/12/6 809/12/6
f 809/12/6 808/12/6 810/12/6
f 811/14/6 812/14/6 813/14/6
f 813/14/6 812/14/6 814/14/6
